<?xml version="1.0" encoding="UTF-8"?>
<!DOCTYPE svg PUBLIC "-//W3C//DTD SVG 1.1//EN" "http://www.w3.org/Graphics/SVG/1.1/DTD/svg11.dtd">
<!-- Creator: CorelDRAW X6 -->
<svg xmlns="http://www.w3.org/2000/svg" xml:space="preserve" width="38.608mm" height="13.462mm" version="1.1" style="shape-rendering:geometricPrecision; text-rendering:geometricPrecision; image-rendering:optimizeQuality; fill-rule:evenodd; clip-rule:evenodd"
viewBox="0 0 3861 1346"
 xmlns:xlink="http://www.w3.org/1999/xlink">
 <defs>
  <style type="text/css">
   <![CDATA[
    .fil0 {fill:#FEFEFE}
   ]]>
  </style>
 </defs>
 <g id="Слой_x0020_1">
  <metadata id="CorelCorpID_0Corel-Layer"/>
  <g id="_861079424">
   <path class="fil0" d="M335 1103c87,0 174,-2 261,0 159,5 253,-82 307,-212 10,-26 19,-53 28,-80 1,-2 1,-5 1,-10 -49,0 -98,0 -146,0 -10,0 -14,5 -18,13 -7,16 -15,31 -27,43 -17,19 -37,29 -63,29 -68,0 -136,1 -205,1 -46,-1 -61,-20 -55,-67 5,-41 24,-77 37,-115 25,-68 51,-135 77,-203 7,-18 16,-35 26,-51 26,-38 60,-60 107,-59 62,1 123,1 185,2 45,0 57,14 49,58 -2,15 0,20 15,20 42,-1 84,0 125,0 12,0 21,-1 26,-15 13,-40 29,-79 36,-121 13,-85 -25,-137 -109,-146 -60,-7 -121,-4 -181,-5 -94,-2 -188,-1 -282,-2 -66,-1 -128,11 -185,48 -2,1 -5,3 -7,0 221,-271 675,-308 939,-43l-111 0c-4,5 -4,7 -1,10 19,18 20,39 11,63 -34,96 -68,192 -102,287 -57,161 -115,322 -172,484 -16,47 -1,69 49,69 115,-1 230,-2 345,-3 7,0 14,0 21,0 -193,261 -690,344 -982,13 0,-3 1,-5 1,-8z"/>
   <path class="fil0" d="M1372 827c-40,-2 -79,2 -117,-7 -63,-15 -94,-59 -88,-124 4,-39 15,-75 29,-111 42,-107 85,-215 126,-323 7,-18 14,-26 36,-25 52,4 105,-1 157,5 15,1 30,4 44,9 51,19 75,56 72,111 -1,35 -9,68 -21,100 -43,113 -88,225 -130,338 -8,21 -18,29 -39,28 -23,-2 -47,-1 -69,-1z"/>
   <path class="fil0" d="M173 540c-34,209 15,393 150,558 -76,-2 -147,7 -218,-5 -65,-12 -99,-51 -98,-113l0 0c0,-7 0,-14 1,-20 3,-32 12,-62 23,-91 43,-106 86,-212 129,-318 1,-4 3,-8 13,-11z"/>
   <path class="fil0" d="M2227 885c-8,7 -6,15 -6,21 0,46 0,91 0,136 0,13 0,25 -4,36 -6,18 -18,26 -36,26 -18,0 -30,-10 -34,-27 -4,-11 -5,-24 -5,-36 0,-83 0,-165 0,-248 0,-3 0,-6 0,-9 1,-20 2,-43 25,-50 23,-6 40,6 53,25 42,56 84,113 125,169 7,8 11,19 26,26 0,-34 0,-65 0,-96 0,-29 -1,-57 1,-85 2,-27 14,-40 35,-40 18,-1 31,6 37,24 4,11 5,23 5,36 1,83 1,167 1,251 0,3 0,6 0,9 0,19 -1,39 -21,49 -17,8 -40,-1 -57,-23 -34,-44 -67,-90 -100,-135 -15,-20 -30,-39 -45,-59z"/>
   <path class="fil0" d="M2612 454c0,-48 0,-95 0,-143 0,-15 0,-30 3,-45 5,-18 16,-28 34,-28 18,-1 30,8 36,25 4,11 5,22 5,33 0,85 1,170 1,254 0,21 2,44 -23,55 -18,7 -39,-3 -58,-28 -40,-54 -80,-110 -120,-164 -6,-8 -11,-18 -21,-23 -6,6 -4,14 -4,22 0,41 0,83 1,124 0,14 0,28 -4,42 -6,17 -18,26 -36,26 -17,0 -28,-9 -34,-25 -4,-10 -5,-21 -5,-33 0,-85 -1,-171 -1,-257 0,-8 1,-16 3,-24 8,-29 33,-38 58,-20 11,9 19,20 27,31 42,57 83,114 125,170 2,3 4,7 13,8z"/>
   <path class="fil0" d="M2086 415c0,28 4,54 18,77 34,53 107,51 136,-4 20,-38 21,-78 8,-117 -14,-44 -41,-63 -80,-62 -39,1 -62,20 -76,63 -5,15 -5,30 -6,43zm253 8c1,36 -6,70 -24,101 -36,63 -109,93 -186,76 -68,-15 -120,-77 -126,-154 -4,-53 1,-105 35,-149 46,-59 107,-72 174,-58 64,13 102,58 120,121 6,20 7,41 7,63z"/>
   <path class="fil0" d="M3335 429c0,18 3,42 17,65 16,26 39,40 69,38 30,-1 52,-18 63,-46 19,-46 16,-91 -7,-134 -15,-26 -38,-37 -67,-36 -29,1 -48,16 -61,41 -11,20 -14,42 -14,72zm242 0c-2,67 -21,125 -84,159 -92,49 -203,1 -231,-101 -16,-57 -14,-114 16,-167 34,-60 87,-81 153,-76 64,6 107,42 132,102 10,26 14,54 14,83z"/>
   <path class="fil0" d="M3059 360c0,50 0,50 44,47 28,-3 41,-15 42,-41 1,-28 -10,-42 -38,-47 -45,-8 -48,-5 -48,41zm90 93c18,27 39,48 58,70 9,11 18,22 22,36 4,16 2,31 -12,41 -14,10 -29,11 -44,0 -11,-9 -20,-20 -28,-31 -26,-34 -52,-67 -82,-106 -5,29 -2,52 -2,74 0,13 -1,26 -3,39 -4,19 -16,28 -34,28 -19,1 -32,-9 -37,-28 -3,-9 -3,-20 -3,-30 -1,-79 -2,-159 -2,-238 0,-9 1,-19 2,-28 2,-19 13,-31 32,-33 42,-4 84,-5 124,3 63,14 97,68 84,132 -6,27 -22,47 -46,59 -9,5 -18,8 -29,12z"/>
   <path class="fil0" d="M2597 864c29,-31 56,-61 83,-90 11,-13 23,-25 37,-35 18,-11 34,-9 48,6 13,14 14,29 0,46 -26,29 -53,57 -80,85 -21,22 -21,22 -1,45 26,31 53,62 80,93 8,9 16,18 22,29 9,18 5,37 -10,49 -15,12 -30,8 -43,-2 -9,-6 -16,-15 -24,-23 -26,-31 -52,-63 -79,-94 -8,-9 -13,-27 -28,-22 -16,5 -8,22 -9,34 -1,17 0,35 0,52 0,13 -1,26 -5,38 -6,16 -16,26 -33,26 -17,-1 -31,-8 -37,-26 -3,-9 -4,-19 -4,-29 0,-83 -1,-166 -1,-248 0,-10 0,-20 2,-30 3,-24 16,-36 37,-36 20,0 31,10 36,32 5,21 3,43 4,64 0,10 -3,21 5,36z"/>
   <path class="fil0" d="M1705 395c1,-47 25,-105 87,-142 49,-29 102,-28 154,-6 9,4 18,9 24,17 10,12 14,24 7,39 -8,15 -21,22 -37,19 -11,-2 -21,-6 -31,-9 -58,-16 -104,12 -115,72 -5,22 -6,44 -1,66 12,59 57,88 115,73 11,-3 23,-7 34,-11 15,-5 28,-2 36,12 9,13 9,28 -1,42 -12,16 -28,25 -47,30 -130,32 -225,-48 -225,-202z"/>
   <path class="fil0" d="M2797 348c0,-30 0,-30 -28,-31 -11,0 -22,0 -33,-4 -15,-6 -24,-16 -24,-34 0,-17 10,-26 24,-31 10,-4 21,-6 32,-5 47,0 95,1 143,1 10,0 19,2 28,7 14,6 22,17 20,33 -2,16 -10,27 -25,30 -12,3 -24,4 -35,3 -19,-1 -24,6 -24,25 1,64 1,129 2,193 0,13 -1,27 -4,39 -4,19 -15,30 -35,30 -20,0 -31,-11 -36,-30 -5,-19 -5,-194 -5,-226z"/>
   <path class="fil0" d="M1762 784c2,-34 14,-51 38,-51 26,0 40,16 41,53 1,66 0,133 0,199 0,43 0,43 43,43 17,0 34,0 51,2 22,3 34,16 33,35 0,20 -12,32 -31,34 -48,7 -97,7 -145,2 -21,-2 -29,-14 -30,-41 -1,-48 -1,-268 0,-276z"/>
   <path class="fil0" d="M3697 505c0,18 5,26 24,24 19,-1 39,0 59,2 25,2 36,14 36,35 1,18 -11,31 -34,33 -42,4 -83,4 -125,0 -25,-2 -34,-14 -35,-40 -1,-90 -2,-179 -3,-269 0,-13 3,-26 14,-36 22,-19 55,-7 60,25 3,25 5,192 4,226z"/>
   <path class="fil0" d="M1996 789c0,-11 1,-22 5,-33 7,-16 18,-23 34,-23 17,0 28,9 35,24 5,12 5,26 5,39 1,83 0,165 0,247 0,10 0,20 -3,30 -5,22 -18,33 -37,32 -20,0 -33,-12 -37,-36 -2,-7 -1,-16 -1,-24 -1,-42 -1,-213 -1,-256z"/>
  </g>
 </g>
</svg>
